<svg width="16" height="16" viewBox="0 0 16 16" fill="none" xmlns="http://www.w3.org/2000/svg">
<mask id="mask0_20_225" style="mask-type:alpha" maskUnits="userSpaceOnUse" x="0" y="0" width="16" height="16">
<rect width="16" height="16" fill="#A3A3A3"/>
</mask>
<g mask="url(#mask0_20_225)">
<path d="M7.33335 13.3334C7.14446 13.3334 6.98612 13.2695 6.85835 13.1417C6.73057 13.0139 6.66668 12.8556 6.66668 12.6667V8.66669L2.80001 3.73335C2.63335 3.51113 2.60835 3.2778 2.72501 3.03335C2.84168 2.78891 3.04446 2.66669 3.33335 2.66669H12.6667C12.9556 2.66669 13.1583 2.78891 13.275 3.03335C13.3917 3.2778 13.3667 3.51113 13.2 3.73335L9.33335 8.66669V12.6667C9.33335 12.8556 9.26946 13.0139 9.14168 13.1417C9.0139 13.2695 8.85557 13.3334 8.66668 13.3334H7.33335Z" fill="#A3A3A3"/>
</g>
</svg>
