<svg width="17" height="16" viewBox="0 0 17 16" fill="none" xmlns="http://www.w3.org/2000/svg">
<mask id="mask0_20_244" style="mask-type:alpha" maskUnits="userSpaceOnUse" x="0" y="0" width="17" height="16">
<rect x="0.297974" width="16" height="16" fill="#D9D9D9"/>
</mask>
<g mask="url(#mask0_20_244)">
<path d="M3.63131 14C3.26464 14 2.95075 13.8694 2.68964 13.6083C2.42853 13.3472 2.29797 13.0333 2.29797 12.6667V3.33333C2.29797 2.96667 2.42853 2.65278 2.68964 2.39167C2.95075 2.13056 3.26464 2 3.63131 2H8.29797V3.33333H3.63131V12.6667H8.29797V14H3.63131ZM10.9646 11.3333L10.048 10.3667L11.748 8.66667H6.29797V7.33333H11.748L10.048 5.63333L10.9646 4.66667L14.298 8L10.9646 11.3333Z" fill="#83DEBD"/>
</g>
</svg>
