<svg width="156" height="16" viewBox="0 0 156 16" fill="none" xmlns="http://www.w3.org/2000/svg">
<path d="M4.0457 1.37644C4.23722 0.824886 4.79802 0.225267 5.23715 0.102751C6.19306 -0.164154 7.36951 0.731506 7.81183 2.063C8.20685 3.25213 8.12245 4.54842 7.60451 5.2473C7.21145 5.77762 6.91822 5.97909 6.46161 6.03231C5.66643 6.12513 4.75959 5.40208 4.24645 4.26589C3.99503 3.70929 3.95109 3.50212 3.92074 2.73008C3.89323 2.03221 3.92048 1.737 4.0457 1.37644Z" fill="#23BF87"/>
<path d="M9.2729 1.69481C9.53515 1.0883 10.1547 0.375632 10.603 0.1647C11.0377 -0.0397075 11.635 -0.0558843 11.9775 0.127567C12.3683 0.336846 12.8596 0.99253 13.0047 1.49831C13.397 2.86675 12.9332 4.63298 11.9455 5.53213C11.6622 5.78994 11.0802 6.0539 10.7898 6.05611C10.1922 6.06071 9.46255 5.46789 9.15211 4.72544C8.82055 3.93217 8.87282 2.62007 9.2729 1.69481Z" fill="#23BF87"/>
<path d="M13.8208 5.07645C14.0378 4.94474 14.3419 4.80458 14.4965 4.76487C15.2051 4.58298 15.8575 4.92682 16.2108 5.66834C16.4182 6.10372 16.4374 6.23147 16.4034 6.95508C16.343 8.24035 15.7538 9.3394 14.8543 9.84435C14.2348 10.1921 13.8325 10.2489 13.3473 10.0569C11.7245 9.41523 12.034 6.16089 13.8208 5.07645Z" fill="#23BF87"/>
<path d="M0.7021 7.00967C0.698551 6.02909 0.911282 5.56467 1.50634 5.25392C2.02792 4.9815 2.51852 4.99033 3.08402 5.28214C3.8517 5.67836 4.48962 6.55766 4.74442 7.57097C4.91703 8.25735 4.91748 8.56708 4.74673 9.16238C4.38712 10.4165 3.26897 10.7654 2.15207 9.97192C1.2172 9.30778 0.706627 8.2647 0.7021 7.00967Z" fill="#23BF87"/>
<path d="M4.35046 11.6187C5.21124 9.76412 6.27072 8.69171 7.62378 8.30523C8.17943 8.1466 9.29021 8.14402 9.79146 8.30027C10.9581 8.66386 12.6535 10.5355 13.579 12.4814C14.3216 14.043 14.2027 15.162 13.2495 15.5826C12.7039 15.8234 12.1114 15.7435 10.9612 15.2742C9.94473 14.8594 9.85624 14.8396 9.00896 14.8382C8.18679 14.8368 8.04311 14.8657 7.05649 15.2304C5.71169 15.7276 5.06152 15.8072 4.55059 15.5372C3.4257 14.9429 3.36438 13.7431 4.35046 11.6187Z" fill="#23BF87"/>
<path d="M32.8754 8.64322C32.8754 9.56784 33.0702 10.3786 33.4598 11.0754C33.8619 11.7588 34.3834 12.2881 35.0243 12.6633C35.6653 13.0251 36.3627 13.206 37.1167 13.206C37.7451 13.206 38.3043 13.1189 38.7944 12.9447C39.2845 12.7705 39.7244 12.536 40.1139 12.2412C40.5161 11.9464 40.8617 11.6248 41.1507 11.2764V14.5126C40.6103 14.9682 40.0197 15.3233 39.3788 15.5779C38.7504 15.8325 37.9524 15.9598 36.9848 15.9598C35.9794 15.9598 35.0432 15.7856 34.1761 15.4372C33.3215 15.0888 32.5738 14.5863 31.9329 13.9296C31.3045 13.273 30.8144 12.5025 30.4626 11.6181C30.1233 10.7203 29.9536 9.72864 29.9536 8.64322C29.9536 7.55779 30.1233 6.57286 30.4626 5.68844C30.8144 4.79062 31.3045 4.0134 31.9329 3.35678C32.5738 2.70017 33.3215 2.19765 34.1761 1.84925C35.0432 1.50084 35.9794 1.32663 36.9848 1.32663C37.9524 1.32663 38.7504 1.45394 39.3788 1.70854C40.0197 1.96315 40.6103 2.31826 41.1507 2.77387V6.01005C40.8617 5.66164 40.5161 5.34003 40.1139 5.04523C39.7244 4.75042 39.2845 4.51591 38.7944 4.34171C38.3043 4.1675 37.7451 4.0804 37.1167 4.0804C36.3627 4.0804 35.6653 4.26801 35.0243 4.64322C34.3834 5.00502 33.8619 5.52764 33.4598 6.21105C33.0702 6.89447 32.8754 7.70519 32.8754 8.64322Z" fill="#3A99CE"/>
<path d="M46.2834 12.804C46.2834 13.072 46.3463 13.3065 46.4719 13.5075C46.5976 13.6951 46.7673 13.8425 46.9809 13.9497C47.2071 14.0436 47.4522 14.0905 47.7161 14.0905C48.0931 14.0905 48.4324 14.01 48.734 13.8492C49.0356 13.675 49.2806 13.4338 49.4691 13.1256C49.6576 12.804 49.7519 12.4221 49.7519 11.9799L50.0535 13.1859C50.0535 13.7755 49.8964 14.2714 49.5822 14.6734C49.2806 15.0754 48.8848 15.3769 48.3947 15.5779C47.9171 15.7789 47.4145 15.8794 46.8866 15.8794C46.3463 15.8794 45.8436 15.7655 45.3786 15.5377C44.9136 15.3099 44.5366 14.9816 44.2476 14.5528C43.9711 14.1106 43.8329 13.5745 43.8329 12.9447C43.8329 12.0469 44.1282 11.3367 44.7189 10.8141C45.3095 10.2915 46.1452 10.0301 47.226 10.0301C47.7789 10.0301 48.2627 10.0905 48.6774 10.2111C49.1047 10.3317 49.4629 10.4791 49.7519 10.6533C50.0409 10.8275 50.2483 10.995 50.374 11.1558V12.3618C50.0346 12.0938 49.6514 11.8928 49.2241 11.7588C48.8094 11.6248 48.3695 11.5578 47.9046 11.5578C47.5276 11.5578 47.2197 11.6114 46.9809 11.7186C46.7421 11.8124 46.5662 11.9531 46.4531 12.1407C46.34 12.3149 46.2834 12.536 46.2834 12.804ZM45.3409 9.04523L44.4361 7.27638C44.8885 7.02177 45.4415 6.78057 46.0949 6.55276C46.7484 6.31156 47.4773 6.19095 48.2816 6.19095C49.023 6.19095 49.6828 6.30486 50.2609 6.53266C50.8389 6.76047 51.2913 7.09548 51.6181 7.53769C51.9448 7.9665 52.1082 8.49581 52.1082 9.12563V15.6784H49.7519V9.66834C49.7519 9.41373 49.7142 9.19933 49.6388 9.02513C49.5634 8.83752 49.444 8.68342 49.2806 8.56281C49.1298 8.44221 48.9476 8.35511 48.734 8.30151C48.5203 8.24791 48.2816 8.2211 48.0177 8.2211C47.6155 8.2211 47.2322 8.26801 46.8678 8.36181C46.5034 8.45561 46.1892 8.56951 45.9253 8.70352C45.6614 8.83752 45.4666 8.95142 45.3409 9.04523Z" fill="#3A99CE"/>
<path d="M54.2097 6.43216H59.5632V8.62312H54.2097V6.43216ZM55.6989 3.21608H58.0552V15.6784H55.6989V3.21608Z" fill="#3A99CE"/>
<path d="M62.2389 12.4824C62.6033 12.8442 62.9426 13.139 63.2568 13.3668C63.571 13.5812 63.8663 13.742 64.1428 13.8492C64.4318 13.9564 64.702 14.01 64.9534 14.01C65.2801 14.01 65.5314 13.9363 65.7074 13.7889C65.8833 13.6281 65.9713 13.4137 65.9713 13.1457C65.9713 12.9045 65.8959 12.7035 65.7451 12.5427C65.6068 12.3685 65.3995 12.2144 65.123 12.0804C64.8465 11.9464 64.4947 11.8057 64.0674 11.6583C63.6652 11.4975 63.2757 11.3099 62.8987 11.0955C62.5217 10.8677 62.2075 10.5729 61.9562 10.2111C61.7174 9.83585 61.598 9.36013 61.598 8.78392C61.598 8.23451 61.7362 7.77219 62.0127 7.39698C62.2892 7.00838 62.6599 6.72027 63.1249 6.53266C63.6024 6.33166 64.1302 6.23115 64.7083 6.23115C65.1984 6.23115 65.6571 6.29816 66.0844 6.43216C66.5116 6.56616 66.9075 6.74707 67.2719 6.97487C67.6364 7.18928 67.9568 7.44388 68.2333 7.73869L67.1588 9.34673C66.8447 8.98492 66.4677 8.69012 66.0278 8.46231C65.6005 8.2345 65.1796 8.1206 64.7649 8.1206C64.4884 8.1206 64.2685 8.1809 64.1051 8.30151C63.9543 8.40871 63.8789 8.57621 63.8789 8.80402C63.8789 9.00502 63.9543 9.18593 64.1051 9.34673C64.2685 9.49414 64.4947 9.62814 64.7837 9.74874C65.0853 9.86935 65.4246 10.0168 65.8016 10.191C66.2666 10.3786 66.6939 10.593 67.0834 10.8342C67.4856 11.062 67.806 11.3501 68.0448 11.6985C68.2836 12.0469 68.403 12.5025 68.403 13.0653C68.403 13.9899 68.1202 14.7136 67.5547 15.2362C66.9892 15.7454 66.21 16 65.2173 16C64.6015 16 64.036 15.9129 63.5207 15.7387C63.0181 15.5645 62.5594 15.3367 62.1447 15.0553C61.7425 14.7605 61.3781 14.4456 61.0513 14.1106L62.2389 12.4824Z" fill="#3A99CE"/>
<path d="M77.8518 1.60804H80.5474V15.6784H77.8518V1.60804ZM79.4918 4.0402V1.60804H82.112C83.1551 1.60804 84.041 1.78894 84.7699 2.15075C85.5113 2.51256 86.0769 3.02848 86.4664 3.69849C86.856 4.36851 87.0508 5.16583 87.0508 6.09045C87.0508 7.00167 86.856 7.79899 86.4664 8.48241C86.0769 9.15243 85.5113 9.66834 84.7699 10.0301C84.041 10.392 83.1551 10.5729 82.112 10.5729H79.4918V8.1407H82.112C82.8283 8.1407 83.3938 7.9665 83.8085 7.61809C84.2232 7.26968 84.4306 6.76047 84.4306 6.09045C84.4306 5.40703 84.2232 4.89782 83.8085 4.56281C83.3938 4.2144 82.8283 4.0402 82.112 4.0402H79.4918Z" fill="#3A99CE"/>
<path d="M91.0161 12.804C91.0161 13.072 91.079 13.3065 91.2046 13.5075C91.3303 13.6951 91.5 13.8425 91.7136 13.9497C91.9398 14.0436 92.1848 14.0905 92.4488 14.0905C92.8258 14.0905 93.1651 14.01 93.4667 13.8492C93.7683 13.675 94.0133 13.4338 94.2018 13.1256C94.3903 12.804 94.4846 12.4221 94.4846 11.9799L94.7862 13.1859C94.7862 13.7755 94.6291 14.2714 94.3149 14.6734C94.0133 15.0754 93.6175 15.3769 93.1274 15.5779C92.6498 15.7789 92.1471 15.8794 91.6193 15.8794C91.079 15.8794 90.5763 15.7655 90.1113 15.5377C89.6463 15.3099 89.2693 14.9816 88.9803 14.5528C88.7038 14.1106 88.5656 13.5745 88.5656 12.9447C88.5656 12.0469 88.8609 11.3367 89.4516 10.8141C90.0422 10.2915 90.8779 10.0301 91.9586 10.0301C92.5116 10.0301 92.9954 10.0905 93.4101 10.2111C93.8374 10.3317 94.1956 10.4791 94.4846 10.6533C94.7736 10.8275 94.981 10.995 95.1067 11.1558V12.3618C94.7673 12.0938 94.3841 11.8928 93.9568 11.7588C93.5421 11.6248 93.1022 11.5578 92.6373 11.5578C92.2603 11.5578 91.9524 11.6114 91.7136 11.7186C91.4748 11.8124 91.2989 11.9531 91.1858 12.1407C91.0727 12.3149 91.0161 12.536 91.0161 12.804ZM90.0736 9.04523L89.1688 7.27638C89.6212 7.02177 90.1741 6.78057 90.8276 6.55276C91.4811 6.31156 92.21 6.19095 93.0143 6.19095C93.7557 6.19095 94.4155 6.30486 94.9935 6.53266C95.5716 6.76047 96.024 7.09548 96.3508 7.53769C96.6775 7.9665 96.8409 8.49581 96.8409 9.12563V15.6784H94.4846V9.66834C94.4846 9.41373 94.4469 9.19933 94.3715 9.02513C94.2961 8.83752 94.1767 8.68342 94.0133 8.56281C93.8625 8.44221 93.6803 8.35511 93.4667 8.30151C93.253 8.24791 93.0143 8.2211 92.7504 8.2211C92.3482 8.2211 91.9649 8.26801 91.6005 8.36181C91.236 8.45561 90.9219 8.56951 90.658 8.70352C90.3941 8.83752 90.1993 8.95142 90.0736 9.04523Z" fill="#3A99CE"/>
<path d="M102.449 6.43216V15.6784H100.055V6.43216H102.449ZM104.993 9.14573C104.83 8.98492 104.66 8.86432 104.484 8.78392C104.321 8.69012 104.114 8.64322 103.862 8.64322C103.561 8.64322 103.303 8.73032 103.089 8.90452C102.876 9.07873 102.712 9.32663 102.599 9.64824C102.499 9.95645 102.449 10.3317 102.449 10.7739L101.77 10.0503C101.77 9.31323 101.902 8.66332 102.166 8.1005C102.43 7.52429 102.775 7.06868 103.203 6.73367C103.63 6.38526 104.07 6.21105 104.522 6.21105C104.836 6.21105 105.132 6.27136 105.408 6.39196C105.697 6.51256 105.93 6.69347 106.106 6.93467L104.993 9.14573Z" fill="#3A99CE"/>
<path d="M110.076 12.804C110.076 13.072 110.139 13.3065 110.265 13.5075C110.39 13.6951 110.56 13.8425 110.774 13.9497C111 14.0436 111.245 14.0905 111.509 14.0905C111.886 14.0905 112.225 14.01 112.527 13.8492C112.828 13.675 113.074 13.4338 113.262 13.1256C113.451 12.804 113.545 12.4221 113.545 11.9799L113.846 13.1859C113.846 13.7755 113.689 14.2714 113.375 14.6734C113.074 15.0754 112.678 15.3769 112.188 15.5779C111.71 15.7789 111.207 15.8794 110.68 15.8794C110.139 15.8794 109.636 15.7655 109.171 15.5377C108.707 15.3099 108.33 14.9816 108.04 14.5528C107.764 14.1106 107.626 13.5745 107.626 12.9447C107.626 12.0469 107.921 11.3367 108.512 10.8141C109.102 10.2915 109.938 10.0301 111.019 10.0301C111.572 10.0301 112.056 10.0905 112.47 10.2111C112.898 10.3317 113.256 10.4791 113.545 10.6533C113.834 10.8275 114.041 10.995 114.167 11.1558V12.3618C113.828 12.0938 113.444 11.8928 113.017 11.7588C112.602 11.6248 112.162 11.5578 111.697 11.5578C111.32 11.5578 111.013 11.6114 110.774 11.7186C110.535 11.8124 110.359 11.9531 110.246 12.1407C110.133 12.3149 110.076 12.536 110.076 12.804ZM109.134 9.04523L108.229 7.27638C108.681 7.02177 109.234 6.78057 109.888 6.55276C110.541 6.31156 111.27 6.19095 112.074 6.19095C112.816 6.19095 113.476 6.30486 114.054 6.53266C114.632 6.76047 115.084 7.09548 115.411 7.53769C115.738 7.9665 115.901 8.49581 115.901 9.12563V15.6784H113.545V9.66834C113.545 9.41373 113.507 9.19933 113.432 9.02513C113.356 8.83752 113.237 8.68342 113.074 8.56281C112.923 8.44221 112.74 8.35511 112.527 8.30151C112.313 8.24791 112.074 8.2211 111.811 8.2211C111.408 8.2211 111.025 8.26801 110.661 8.36181C110.296 8.45561 109.982 8.56951 109.718 8.70352C109.454 8.83752 109.259 8.95142 109.134 9.04523Z" fill="#3A99CE"/>
<path d="M125.656 0H128.106V15.6784H125.656V0ZM118.53 11.0553C118.53 10.0234 118.725 9.15243 119.115 8.44221C119.504 7.71859 120.02 7.16918 120.66 6.79397C121.301 6.41876 121.98 6.23115 122.696 6.23115C123.425 6.23115 124.066 6.42546 124.619 6.81407C125.185 7.20268 125.624 7.75879 125.939 8.48241C126.265 9.19263 126.429 10.0503 126.429 11.0553C126.429 12.0469 126.265 12.9045 125.939 13.6281C125.624 14.3518 125.185 14.9079 124.619 15.2965C124.066 15.6851 123.425 15.8794 122.696 15.8794C121.98 15.8794 121.301 15.6918 120.66 15.3166C120.02 14.9414 119.504 14.392 119.115 13.6683C118.725 12.9447 118.53 12.0737 118.53 11.0553ZM121.056 11.0553C121.056 11.6047 121.163 12.0804 121.377 12.4824C121.59 12.8844 121.879 13.1926 122.244 13.407C122.608 13.6214 122.998 13.7286 123.413 13.7286C123.777 13.7286 124.129 13.6281 124.468 13.4271C124.82 13.2127 125.103 12.9045 125.317 12.5025C125.543 12.1005 125.656 11.6181 125.656 11.0553C125.656 10.4925 125.543 10.01 125.317 9.60804C125.103 9.20603 124.82 8.90452 124.468 8.70352C124.129 8.48911 123.777 8.38191 123.413 8.38191C122.998 8.38191 122.608 8.48911 122.244 8.70352C121.879 8.91792 121.59 9.22613 121.377 9.62814C121.163 10.0301 121.056 10.5059 121.056 11.0553Z" fill="#3A99CE"/>
<path d="M131.284 2.85427C131.284 2.42546 131.428 2.07705 131.717 1.80904C132.006 1.52764 132.352 1.38693 132.754 1.38693C133.156 1.38693 133.496 1.52764 133.772 1.80904C134.061 2.07705 134.206 2.42546 134.206 2.85427C134.206 3.26968 134.061 3.61809 133.772 3.8995C133.496 4.1809 133.156 4.32161 132.754 4.32161C132.352 4.32161 132.006 4.1809 131.717 3.8995C131.428 3.61809 131.284 3.26968 131.284 2.85427ZM131.548 6.43216H133.923V15.6784H131.548V6.43216Z" fill="#3A99CE"/>
<path d="M137.891 12.4824C138.255 12.8442 138.594 13.139 138.908 13.3668C139.223 13.5812 139.518 13.742 139.794 13.8492C140.083 13.9564 140.354 14.01 140.605 14.01C140.932 14.01 141.183 13.9363 141.359 13.7889C141.535 13.6281 141.623 13.4137 141.623 13.1457C141.623 12.9045 141.548 12.7035 141.397 12.5427C141.258 12.3685 141.051 12.2144 140.775 12.0804C140.498 11.9464 140.146 11.8057 139.719 11.6583C139.317 11.4975 138.927 11.3099 138.55 11.0955C138.173 10.8677 137.859 10.5729 137.608 10.2111C137.369 9.83585 137.25 9.36013 137.25 8.78392C137.25 8.23451 137.388 7.77219 137.664 7.39698C137.941 7.00838 138.312 6.72027 138.777 6.53266C139.254 6.33166 139.782 6.23115 140.36 6.23115C140.85 6.23115 141.309 6.29816 141.736 6.43216C142.163 6.56616 142.559 6.74707 142.924 6.97487C143.288 7.18928 143.608 7.44388 143.885 7.73869L142.81 9.34673C142.496 8.98492 142.119 8.69012 141.679 8.46231C141.252 8.2345 140.831 8.1206 140.416 8.1206C140.14 8.1206 139.92 8.1809 139.757 8.30151C139.606 8.40871 139.531 8.57621 139.531 8.80402C139.531 9.00502 139.606 9.18593 139.757 9.34673C139.92 9.49414 140.146 9.62814 140.435 9.74874C140.737 9.86935 141.076 10.0168 141.453 10.191C141.918 10.3786 142.346 10.593 142.735 10.8342C143.137 11.062 143.458 11.3501 143.696 11.6985C143.935 12.0469 144.055 12.5025 144.055 13.0653C144.055 13.9899 143.772 14.7136 143.206 15.2362C142.641 15.7454 141.862 16 140.869 16C140.253 16 139.688 15.9129 139.172 15.7387C138.67 15.5645 138.211 15.3367 137.796 15.0553C137.394 14.7605 137.03 14.4456 136.703 14.1106L137.891 12.4824Z" fill="#3A99CE"/>
<path d="M150.774 15.8794C149.831 15.8794 149.008 15.6784 148.304 15.2764C147.601 14.8744 147.054 14.3183 146.664 13.608C146.287 12.8844 146.099 12.0335 146.099 11.0553C146.099 10.0637 146.287 9.21273 146.664 8.50251C147.054 7.77889 147.601 7.22278 148.304 6.83417C149.008 6.43216 149.838 6.23115 150.793 6.23115C151.748 6.23115 152.558 6.41876 153.224 6.79397C153.903 7.15578 154.418 7.69179 154.77 8.40201C155.122 9.09883 155.298 9.94305 155.298 10.9347C155.298 11.0553 155.292 11.1826 155.279 11.3166C155.279 11.4506 155.273 11.5578 155.26 11.6382H147.494V10.0301H153.13L152.47 10.9548C152.521 10.8744 152.565 10.7672 152.602 10.6332C152.653 10.4858 152.678 10.3652 152.678 10.2714C152.678 9.81574 152.596 9.42713 152.433 9.10553C152.282 8.78392 152.062 8.52931 151.773 8.34171C151.484 8.1541 151.145 8.0603 150.755 8.0603C150.277 8.0603 149.875 8.1742 149.549 8.40201C149.234 8.61641 148.989 8.94472 148.813 9.38693C148.65 9.81574 148.562 10.3518 148.55 10.995C148.55 11.6114 148.631 12.134 148.795 12.5628C148.971 12.9916 149.228 13.3199 149.567 13.5477C149.907 13.7755 150.315 13.8894 150.793 13.8894C151.333 13.8894 151.792 13.7822 152.169 13.5678C152.558 13.34 152.879 13.005 153.13 12.5628L155.26 13.2663C154.808 14.1374 154.205 14.794 153.451 15.2362C152.709 15.665 151.817 15.8794 150.774 15.8794Z" fill="#3A99CE"/>
</svg>
